{"title":"Nasa.The.Godmother.2011.DvDRip.XviD.Ac3.Feel-Free","uid":6684115,"size":1516953265,"categoryP":"video","categoryS":"movies","magnet":"?xt=urn:btih:3f2a609718fdd531f0c7de63644d9c0cf718560d&amp;dn=Nasa.The.Godmother.2011.DvDRip.XviD.Ac3.Feel-Free&amp;tr=udp%3A%2F%2Ftracker.openbittorrent.com%3A80&amp;tr=udp%3A%2F%2Fopen.demonii.com%3A1337&amp;tr=udp%3A%2F%2Ftracker.coppersurfer.tk%3A6969&amp;tr=udp%3A%2F%2Fexodus.desync.com%3A6969","seeders":5,"leechers":0,"uploader":".BONE.","files":8,"time":1316335676,"description":"\nGenre:Comedie\nLanguage:Romanian/English\n &lt;a href=&quot;\nhttp://www.imdb.com/title/tt1737255/&quot; rel=&quot;nofollow&quot; target=&quot;_NEW&quot;&gt;\nhttp://www.imdb.com/title/tt1737255/&lt;/a&gt; \n\nSource:Feel-Free\n\nFormat : AVI\nFormat/Info : Audio Video Interleave\nFile size : 1.41 GiB\nDuration : 1h 43mn\nOverall bit rate : 1 953 Kbps\n\nVideo\nID : 0\nFormat : MPEG-4 Visual\nFormat profile : Advanced Simple@L5\nFormat settings, BVOP : Yes\nFormat settings, QPel : No\nFormat settings, GMC : No warppoints\nFormat settings, Matrix : Default (H.263)\nCodec ID : XVID\nCodec ID/Hint : XviD\nDuration : 1h 43mn\nBit rate : 1 495 Kbps\nWidth : 720 pixels\nHeight : 400 pixels\nDisplay aspect ratio : 16:9\nFrame rate : 25.000 fps\nColor space : YUV\nChroma subsampling : 4:2:0\nBit depth : 8 bits\nScan type : Progressive\nBits/(Pixel*Frame) : 0.208\nStream size : 1.08 GiB (77%)\nWriting library : XviD 1.2.1 (UTC 2008-12-04)\n\nAudio\nID : 1\nFormat : AC-3\nFormat/Info : Audio Coding 3\nMode extension : CM (complete main)\nCodec ID : 2000\nDuration : 1h 43mn\nBit rate mode : Constant\nBit rate : 448 Kbps\nChannel(s) : 6 channels\nChannel positions : Front: L C R, Side: L R, LFE\nSampling rate : 48.0 KHz\nBit depth : 16 bits\nStream size : 331 MiB (23%)\nAlignment : Aligned on interleaves\nInterleave, duration : 40 ms (1.00 video frame)\nInterleave, preload duration : 512 ms\n","torrent":{"xt":"urn:btih:3f2a609718fdd531f0c7de63644d9c0cf718560d","amp;dn":"Nasa.The.Godmother.2011.DvDRip.XviD.Ac3.Feel-Free","amp;tr":["udp%3A%2F%2Ftracker.openbittorrent.com%3A80","udp%3A%2F%2Fopen.demonii.com%3A1337","udp%3A%2F%2Ftracker.coppersurfer.tk%3A6969","udp%3A%2F%2Fexodus.desync.com%3A6969"],"infoHash":"3f2a609718fdd531f0c7de63644d9c0cf718560d","infoHashBuffer":{"type":"Buffer","data":[63,42,96,151,24,253,213,49,240,199,222,99,100,77,156,12,247,24,86,13]},"announce":[],"urlList":[]}}